<svg xmlns="http://www.w3.org/2000/svg" viewBox="0 0 256 256">
    <path d="M127.06 255.997C58.851 255.526-.457 198.918.003 126.998.445 57.796 57.952-.469 129.11.003c69.157.46 127.503 57.864 126.885 128.191.573 69.689-58.061 128.295-128.935 127.803zm0 0C58.851 255.526-.457 198.918.003 126.998.445 57.796 57.952-.469 129.11.003c69.157.46 127.503 57.864 126.885 128.191.573 69.689-58.061 128.295-128.935 127.803z"
          fill="#fff"/>
    <path d="M127.185 238.997c-59.152-.408-110.581-49.499-110.182-111.866.384-60.013 50.253-110.54 111.961-110.129 59.971.399 110.569 50.18 110.033 111.167.497 60.433-50.348 111.255-111.811 110.828zm0 0c-59.152-.408-110.581-49.499-110.182-111.866.384-60.013 50.253-110.54 111.961-110.129 59.971.399 110.569 50.18 110.033 111.167.497 60.433-50.348 111.255-111.811 110.828z"
          fill="#49a32b"/>
    <path d="M169.327 127.956c-.285 5.29-4.906 9.683-9.461 8.916h-.068c-5.045.007-9.14-4.078-9.145-9.123a9.28 9.28 0 0 1 9.427-8.96c5.045.025 9.52 4.288 9.247 9.167zM88.201 179.22c1.902.056 3.806.015 6 .015v13.786c-13.635 2.305-24.866-1.566-27.622-13.091a76.5 76.5 0 0 1-1.736-12.886c-.293-4.592.214-9.235-.136-13.819-.97-12.612-2.604-16.918-14.706-17.514v-15.696c.867-.203 1.747-.353 2.632-.452 6.636-.327 9.433-2.361 10.917-8.897a74.57 74.57 0 0 0 1.194-11.122c.526-7.217.339-14.551 1.541-21.651 1.738-10.267 8.112-15.255 18.64-15.813 2.996-.161 6.001-.025 9.396-.025v14.091c-1.397.099-2.677.302-3.949.264-8.58-.263-9.024 2.659-9.65 9.762-.391 4.454.148 8.985-.155 13.454-.317 4.447-.912 8.871-1.781 13.245-1.238 6.339-5.135 11.053-10.535 15.054 10.484 6.822 11.677 17.423 12.357 28.187.366 5.785.199 11.61.786 17.366.458 4.468 2.195 5.607 6.809 5.744zm8.836-60.431h.162a9.08 9.08 0 0 1 8.927 9.227 8.43 8.43 0 0 1-.015.492c-.282 4.899-4.481 8.641-9.381 8.359-.197.004-.394 0-.591-.01a9.05 9.05 0 0 1-8.586-9.483 9.05 9.05 0 0 1 9.483-8.586zm31.236 0c5.482-.042 9.123 3.51 9.152 8.93.03 5.565-3.422 9.126-8.869 9.149-5.539.025-9.186-3.479-9.216-8.866a9.27 9.27 0 0 1-.012-.825c.154-4.786 4.159-8.542 8.945-8.388zm65.4-6.866c1.458 5.447 4.298 7.361 10.032 7.623.94.044 1.875.203 3.163.346v15.692c-.697.229-1.412.4-2.138.512-7.684.478-11.186 3.63-11.963 11.335-.496 4.918-.455 9.891-.795 14.828-.143 5.42-.636 10.824-1.476 16.18-1.961 9.703-8.019 14.544-18.029 15.135-3.222.191-6.467.03-9.94.03v-14.026c1.87-.116 3.52-.275 5.174-.315 5.981-.143 8.095-2.071 8.388-8.011l.757-19.585c.423-9.434 3.007-17.861 11.795-23.745-5.029-3.585-9.066-7.928-10.112-13.783-1.265-7.097-1.674-14.351-2.354-21.548-.336-3.598-.32-7.227-.671-10.821-.379-3.881-3.045-5.223-6.577-5.311-2.023-.049-4.055-.01-6.642-.01V62.754c16.509-2.741 27.914 2.752 28.973 18.548.444 6.633.379 13.297.803 19.93.187 3.609.726 7.19 1.612 10.692z"
          fill="#fff"/>
</svg>